# xmcd CD database file
#
# Track frame offsets:
#	150
#	31954
#	49214
#	74384
#	93832
#	121372
#	145742
#	166979
#	195037
#	203303
#	211535
#	218301
#	240567
#	260359
#
# Disc length: 3872 seconds
#
# Revision: 0
# Processed by: cddbd v1.5.1PL0 Copyright (c) Steve Scherf et al.
# Submitted via: CDex 1.51
#
DISCID=ad0f1e0e
DTITLE=Athanas "Nasko" Gounov - The End of the History
DYEAR=1900
DGENRE=Jazz
TTITLE0=Verses In a Bottle
TTITLE1=Sunny Childhood
TTITLE2=Le carrefour
TTITLE3=Bird's Eye View
TTITLE4=At R.'s Place
TTITLE5=Can You Keep a Secret?
TTITLE6=WithBread and Salt
TTITLE7=Dream and Reality
TTITLE8=Three Waltzes - Part One - The Strange Kind of Waltz
TTITLE9=Three Waltzes - Part Two - Endless Horizon
TTITLE10=Three Waltzes - Part Three - Waltz for Tania
TTITLE11=Last Bossa
TTITLE12=Sambodja
TTITLE13=The End of History
EXTD=
EXTT0=
EXTT1=
EXTT2=
EXTT3=
EXTT4=
EXTT5=
EXTT6=
EXTT7=
EXTT8=
EXTT9=
EXTT10=
EXTT11=
EXTT12=
EXTT13=
PLAYORDER=
